<?xml version="1.0" encoding="UTF-8" standalone="no"?>
<svg
   xmlns:dc="http://purl.org/dc/elements/1.1/"
   xmlns:cc="http://creativecommons.org/ns#"
   xmlns:rdf="http://www.w3.org/1999/02/22-rdf-syntax-ns#"
   xmlns:svg="http://www.w3.org/2000/svg"
   xmlns="http://www.w3.org/2000/svg"
   xmlns:sodipodi="http://sodipodi.sourceforge.net/DTD/sodipodi-0.dtd"
   xmlns:inkscape="http://www.inkscape.org/namespaces/inkscape"
   width="125mm"
   height="41.035mm"
   viewBox="0 0 125 41.035"
   version="1.1"
   id="svg8"
   inkscape:version="1.0.2 (e86c870879, 2021-01-15, custom)"
   sodipodi:docname="logo.svg">
  <defs
     id="defs2" />
  <sodipodi:namedview
     id="base"
     pagecolor="#ffffff"
     bordercolor="#666666"
     borderopacity="1.0"
     inkscape:pageopacity="0.0"
     inkscape:pageshadow="2"
     inkscape:zoom="1.1224138"
     inkscape:cx="407.68392"
     inkscape:cy="267.29387"
     inkscape:document-units="mm"
     inkscape:current-layer="g1626"
     inkscape:document-rotation="0"
     showgrid="false"
     inkscape:window-width="2560"
     inkscape:window-height="1027"
     inkscape:window-x="-8"
     inkscape:window-y="22"
     inkscape:window-maximized="1" />
  <metadata
     id="metadata5">
    <rdf:RDF>
      <cc:Work
         rdf:about="">
        <dc:format>image/svg+xml</dc:format>
        <dc:type
           rdf:resource="http://purl.org/dc/dcmitype/StillImage" />
        <dc:title />
      </cc:Work>
    </rdf:RDF>
  </metadata>
  <g
     inkscape:label="Layer 1"
     inkscape:groupmode="layer"
     id="layer1">
    <g
       id="g1626"
       transform="matrix(0.99496661,0,0,0.99496661,-43.971957,-39.015371)">
      <g
         aria-label="React
Date
Controls"
         id="text12"
         style="font-size:14.4008px;line-height:0.85;font-family:Undella;-inkscape-font-specification:Undella;stroke-width:0.360022">
        <path
           d="m 115.3343,45.583627 q 0.1152,0.388821 0.25921,0.748841 0.15841,0.36002 0.37442,0.72004 0.21601,0.388822 0.46083,0.561632 0.24481,0.172809 0.56163,0.172809 0.17281,0 0.27361,-0.0288 0.11521,-0.0432 0.23042,-0.129608 h 0.0864 q 0.0576,0.201612 0.072,0.403223 0.0288,0.18721 0.0288,0.417623 0,0.489627 -0.0864,0.806445 -0.0864,0.302417 -0.23041,0.446425 -0.15841,0.144008 -0.33122,0.201611 -0.17281,0.072 -0.41762,0.072 -0.36002,0 -0.67684,-0.115207 -0.31682,-0.115206 -0.59043,-0.37442 -0.27362,-0.259215 -0.50403,-0.662437 -0.31682,-0.619235 -0.54723,-1.180866 -0.21601,-0.576032 -0.34562,-1.195266 z m -5.51551,-5.976332 q 0.89285,-0.144008 1.8289,-0.216012 0.93605,-0.072 1.8145,-0.072 1.00806,0 1.7137,0.259214 0.70564,0.259215 1.15206,0.70564 0.44643,0.446424 0.66244,0.979254 0.21601,0.53283 0.21601,1.08006 v 0.18721 q 0,1.022457 -0.30242,1.843303 -0.30241,0.806444 -0.82084,1.382476 -0.50403,0.576032 -1.13766,0.878449 -0.63364,0.302417 -1.29608,0.302417 -0.28801,0 -0.51843,-0.072 -0.23041,-0.072 -0.37442,-0.230413 l -0.51842,0.0144 v -1.468882 q 0.1584,0.0576 0.33121,0.0864 0.18721,0.0144 0.57604,0.0144 0.60483,0 1.05125,-0.288016 0.44643,-0.302417 0.70564,-0.89285 0.25922,-0.590432 0.25922,-1.45448 v -0.216012 q 0,-0.259215 -0.0432,-0.475227 -0.0288,-0.216012 -0.11521,-0.417623 -0.31682,-0.158409 -0.66244,-0.216012 -0.34562,-0.0576 -0.83524,-0.0576 -0.77765,0 -1.44008,0.072 -0.64804,0.072 -1.09447,0.144008 -0.44642,0.072 -0.63363,0.072 -0.30242,0 -0.44643,-0.302417 -0.144,-0.316817 -0.144,-0.921651 0,-0.216012 0.0144,-0.388822 0.0288,-0.172809 0.0576,-0.331218 z m 3.00977,10.08056 q -0.17281,0.0432 -0.33122,0.0576 -0.15841,0.0288 -0.37442,0.0288 -0.77764,0 -1.15207,-0.331219 -0.37442,-0.345619 -0.37442,-1.108861 0,-0.921652 0,-1.828902 0,-0.921651 0,-1.843302 0,-0.921652 0,-1.843303 0,-0.921651 0,-1.828901 h 1.7281 l -0.15841,0.417623 q 0.25922,0.17281 0.37442,0.475226 0.12961,0.302417 0.12961,0.748842 0,0.936052 0,1.886505 0,0.950452 0,1.915306 0,0.950453 0,1.900906 0,0.36002 0.0288,0.705639 0.0288,0.331218 0.12961,0.648036 z"
           style="font-style:normal;font-variant:normal;font-weight:bold;font-stretch:normal;font-family:'Recursive Casual';-inkscape-font-specification:'Recursive Casual Bold';fill:#cccccc;fill-opacity:1;stroke-width:0.360022"
           id="path48" />
        <path
           d="m 122.63548,41.724213 q 1.00805,0 1.71369,0.417623 0.70564,0.403222 1.08006,1.137663 0.38882,0.72004 0.38882,1.670493 v 0.072 q 0,0.54723 -0.072,0.835246 -0.0576,0.288016 -0.17281,0.388822 -0.11521,0.0864 -0.25921,0.0864 h -3.21138 q -0.43203,0 -0.77765,-0.115206 -0.33121,-0.115206 -0.54723,-0.302417 l -0.28801,0.144008 0.0576,-0.892849 h 3.31219 q 0.0288,-0.100806 0.0288,-0.216012 0.0144,-0.129608 0.0144,-0.230413 0,-0.345619 -0.072,-0.648036 -0.072,-0.316818 -0.25921,-0.561631 -0.17281,-0.072 -0.33122,-0.100806 -0.15841,-0.0288 -0.46082,-0.0288 -0.93606,0 -1.51209,0.734441 -0.57603,0.734441 -0.57603,2.232124 v 0.072 q 0,0.417623 0.0576,0.763243 0.072,0.331218 0.20161,0.604833 0.34562,0.17281 0.77765,0.259215 0.44642,0.072 1.08006,0.072 0.47522,0 0.92165,-0.0576 0.44642,-0.072 0.86405,-0.216012 0.43202,-0.144008 0.82084,-0.37442 h 0.0864 q 0.0288,0.129607 0.0432,0.259214 0.0144,0.129607 0.0144,0.259214 0,0.446425 -0.12961,0.748842 -0.1152,0.302417 -0.34562,0.53283 -0.23041,0.230412 -0.59043,0.37442 -0.36002,0.129608 -0.79204,0.187211 -0.43203,0.072 -0.90725,0.072 -0.89285,0 -1.6417,-0.273615 -0.73444,-0.273616 -1.28167,-0.777644 -0.53283,-0.504028 -0.83524,-1.224068 -0.28802,-0.72004 -0.28802,-1.612889 v -0.0864 q 0,-0.921651 0.28802,-1.684894 0.28801,-0.777643 0.80644,-1.339274 0.53283,-0.561631 1.23847,-0.864048 0.72004,-0.316817 1.55529,-0.316817 z"
           style="font-style:normal;font-variant:normal;font-weight:bold;font-stretch:normal;font-family:'Recursive Casual';-inkscape-font-specification:'Recursive Casual Bold';fill:#cccccc;fill-opacity:1;stroke-width:0.360022"
           id="path50" />
        <path
           d="m 133.94008,44.589972 q 0,0.316817 0,0.633635 0,0.316817 0,0.633635 0,0.302417 0,0.619234 0,0.316818 0,0.633636 0,0.172809 0,0.345619 0,0.158409 0,0.331218 0.0576,0.0288 0.14401,0.0576 0.0864,0.0144 0.14401,0.0144 0.15841,0 0.31682,-0.0432 0.15841,-0.0576 0.30241,-0.17281 h 0.0864 q 0.0144,0.0864 0.0144,0.158409 0.0144,0.0576 0.0144,0.158409 0,0.403222 -0.14401,0.806445 -0.1296,0.388821 -0.34562,0.604833 -0.23041,0.230413 -0.44642,0.316818 -0.21601,0.100805 -0.43202,0.100805 -0.37443,0 -0.70564,-0.201611 -0.31682,-0.216012 -0.54723,-0.532829 -0.21602,-0.331219 -0.34562,-0.72004 -0.12961,-0.388822 -0.12961,-0.734441 0,-0.331219 0,-0.648036 0,-0.331219 0,-0.619235 0,-0.345619 0.0288,-0.705639 0.0288,-0.36002 0.0864,-0.763242 0.072,-0.403223 0.1584,-0.878449 -0.27361,-0.129607 -0.54723,-0.201611 -0.25921,-0.072 -0.56163,-0.100806 -0.28801,-0.0288 -0.64803,-0.0288 -0.43203,0 -0.79205,0.0432 -0.36002,0.0288 -0.70564,0.100806 -0.34562,0.0576 -0.72004,0.172809 h -0.0864 q -0.0144,-0.129607 -0.0432,-0.288016 -0.0144,-0.172809 -0.0144,-0.345619 0,-0.302417 0.0864,-0.590433 0.0864,-0.288016 0.27362,-0.475226 0.17281,-0.158409 0.46082,-0.259215 0.28802,-0.115206 0.77764,-0.158408 0.48963,-0.0576 1.22407,-0.0576 0.74884,0 1.31048,0.244813 0.57603,0.244814 0.96485,0.662437 0.40322,0.417623 0.60483,0.90725 0.21601,0.489627 0.21601,0.979255 z m -4.55065,2.865759 q 0,0.388821 0.15841,0.532829 0.17281,0.144008 0.64804,0.144008 0.30241,0 0.61923,-0.100805 0.31682,-0.100806 0.63364,-0.316818 0.31681,-0.216012 0.60483,-0.576032 l 0.0864,1.166465 h -0.21601 q -0.18721,0.374421 -0.54723,0.734441 -0.34562,0.345619 -0.82084,0.576032 -0.47523,0.216012 -1.02246,0.216012 -0.70564,0 -1.20967,-0.244814 -0.48962,-0.259214 -0.74884,-0.748841 -0.25921,-0.504028 -0.25921,-1.267271 v -0.100805 q 0,-0.403223 0.20161,-0.792044 0.21601,-0.403223 0.56163,-0.748842 0.36002,-0.345619 0.82084,-0.54723 0.47523,-0.201612 0.97926,-0.201612 0.61923,0 1.13766,0.072 0.53283,0.0576 0.92165,0.187211 0.38882,0.115206 0.54723,0.273615 0.0864,0.072 0.15841,0.201611 0.072,0.129607 0.11521,0.316818 0.0432,0.18721 0.0432,0.460825 -0.38882,-0.100805 -0.80644,-0.158408 -0.40323,-0.0576 -0.79205,-0.08641 -0.38882,-0.0288 -0.73444,-0.0288 -0.30242,0 -0.53283,0.0432 -0.23041,0.0288 -0.43202,0.129607 -0.0576,0.216012 -0.0864,0.417623 -0.0288,0.18721 -0.0288,0.417623 z"
           style="font-style:normal;font-variant:normal;font-weight:bold;font-stretch:normal;font-family:'Recursive Casual';-inkscape-font-specification:'Recursive Casual Bold';fill:#cccccc;fill-opacity:1;stroke-width:0.360022"
           id="path52" />
        <path
           d="m 139.9596,41.767415 q 0.37442,0 0.66243,0.0576 0.30242,0.0432 0.51843,0.129607 0.21601,0.0864 0.34562,0.230413 0.15841,0.158409 0.23041,0.374421 0.0864,0.216012 0.0864,0.619234 0,0.331219 -0.0576,0.604834 -0.0432,0.273615 -0.15841,0.532829 h -0.072 q -0.40322,-0.302416 -0.77764,-0.417623 -0.36002,-0.129607 -0.92165,-0.129607 -0.60484,0 -1.02246,0.316818 -0.41762,0.316817 -0.63363,0.878448 -0.21602,0.547231 -0.21602,1.25287 v 0.17281 q 0,0.331218 0.0576,0.633635 0.072,0.302417 0.18721,0.561631 0.33122,0.216012 0.69124,0.302417 0.37442,0.0864 0.79204,0.0864 0.43202,0 0.77764,-0.072 0.36002,-0.072 0.67684,-0.230413 0.31682,-0.158409 0.63364,-0.403223 h 0.0864 q 0.0288,0.144008 0.0432,0.288016 0.0144,0.144008 0.0144,0.36002 0,0.504028 -0.1008,0.878449 -0.10081,0.36002 -0.33122,0.590433 -0.14401,0.144008 -0.41762,0.259214 -0.27362,0.100806 -0.64804,0.158409 -0.37442,0.0576 -0.83525,0.0576 -0.74884,0 -1.39687,-0.201611 -0.64804,-0.216012 -1.13767,-0.648036 -0.48962,-0.446425 -0.76324,-1.137663 -0.27361,-0.691238 -0.27361,-1.641691 v -0.201611 q 0,-1.267271 0.48962,-2.217724 0.50403,-0.964853 1.39688,-1.497683 0.89285,-0.54723 2.07372,-0.54723 z"
           style="font-style:normal;font-variant:normal;font-weight:bold;font-stretch:normal;font-family:'Recursive Casual';-inkscape-font-specification:'Recursive Casual Bold';fill:#cccccc;fill-opacity:1;stroke-width:0.360022"
           id="path54" />
        <path
           d="m 142.82533,41.940225 h 5.11228 q 0.54723,0 0.74884,0.259214 0.20161,0.244813 0.20161,0.892849 0,0.144008 -0.0144,0.288016 -0.0144,0.144008 -0.0288,0.273616 -0.0144,0.115206 -0.0432,0.230412 h -3.78741 q -0.66244,0 -1.09446,-0.0864 -0.41763,-0.0864 -0.67684,-0.288016 -0.24481,-0.201612 -0.34562,-0.489628 -0.10081,-0.302416 -0.10081,-0.72004 0,-0.072 0,-0.129607 0,-0.072 0,-0.129607 0.0144,-0.0576 0.0288,-0.100805 z m 5.99073,5.529907 q 0.0288,0.129607 0.0432,0.259214 0.0144,0.129607 0.0144,0.244814 0,0.489627 -0.1008,0.835246 -0.10081,0.345619 -0.27362,0.576032 -0.1008,0.129607 -0.24481,0.230413 -0.14401,0.0864 -0.36002,0.144008 -0.20161,0.0576 -0.46083,0.0864 -0.25921,0.0288 -0.57603,0.0288 -0.54723,0 -1.02246,-0.172809 -0.46082,-0.17281 -0.82084,-0.504028 -0.34562,-0.331219 -0.53283,-0.792044 -0.18721,-0.460826 -0.18721,-1.022457 0,-0.806445 0,-1.598489 0,-0.806445 0,-1.598489 0,-0.806445 0,-1.598489 0,-0.806444 0,-1.598488 0,-0.345619 -0.0432,-0.691239 -0.0288,-0.345619 -0.11521,-0.691238 0.23041,-0.072 0.44642,-0.100806 0.21602,-0.0288 0.44643,-0.0288 0.33122,0 0.60483,0.144008 0.27362,0.144008 0.43203,0.432024 0.17281,0.273615 0.17281,0.72004 0,0.806445 0,1.612889 0,0.792044 0,1.598489 0,0.792044 0,1.598489 0,0.792044 0,1.598489 0,0.172809 0.0144,0.331218 0.0288,0.144008 0.072,0.288016 0.17281,0.0576 0.33122,0.100806 0.15841,0.0288 0.40322,0.0288 0.30242,0 0.57603,-0.0432 0.28802,-0.0576 0.56163,-0.158409 0.27362,-0.100806 0.53283,-0.259214 z"
           style="font-style:normal;font-variant:normal;font-weight:bold;font-stretch:normal;font-family:'Recursive Casual';-inkscape-font-specification:'Recursive Casual Bold';fill:#cccccc;fill-opacity:1;stroke-width:0.360022"
           id="path56" />
        <path
           d="m 118.09925,56.95096 q 0,1.411278 -0.38882,2.52014 -0.38882,1.108861 -1.06566,1.872104 -0.67684,0.763242 -1.55529,1.166464 -0.86404,0.388822 -1.8145,0.388822 -0.24481,0 -0.50403,-0.0288 -0.24481,-0.0288 -0.48962,-0.100805 -0.24482,-0.0576 -0.47523,-0.144008 -0.23041,-0.100806 -0.43202,-0.230413 -0.20161,-0.129607 -0.36002,-0.288016 -0.28802,-0.288016 -0.38882,-0.460826 -0.0864,-0.18721 -0.0864,-0.518428 0,-0.907251 0,-1.7857 0,-0.878448 0,-1.728096 0,-0.849647 0,-1.670492 0,-0.835247 0,-1.670493 h 1.8721 l -0.1296,0.403222 q 0.28801,0.201612 0.41762,0.504028 0.14401,0.302417 0.14401,0.734441 0,0.590433 0,1.195266 0,0.590433 0,1.180866 0,0.590433 0,1.195266 0,0.590433 0,1.180866 0.0288,0 0.0576,0 0.0288,0 0.0432,0 0.0288,0 0.0576,0 0.77764,0 1.41128,-0.403222 0.64803,-0.417624 1.02245,-1.209668 0.38882,-0.792044 0.38882,-1.958508 V 56.95096 q 0,-0.489628 -0.0432,-0.835247 -0.0288,-0.36002 -0.0864,-0.633635 -0.0576,-0.288016 -0.15841,-0.532829 -0.27362,-0.144008 -0.57603,-0.230413 -0.30242,-0.08641 -0.64804,-0.129607 -0.34562,-0.0432 -0.79204,-0.0432 -0.67684,0 -1.20967,0.0432 -0.53283,0.0432 -0.92165,0.100805 -0.38882,0.0576 -0.64804,0.100806 -0.24481,0.0432 -0.36002,0.0432 -0.21601,0 -0.36002,-0.144008 -0.14401,-0.144008 -0.21601,-0.432024 -0.0576,-0.302417 -0.0576,-0.763242 0,-0.244814 0.0144,-0.432024 0.0288,-0.201611 0.072,-0.388822 0.46083,-0.072 0.93605,-0.129607 0.48963,-0.0576 0.99366,-0.0864 0.50403,-0.0432 1.02246,-0.0576 0.53283,-0.0144 1.08006,-0.0144 0.87844,0 1.64169,0.273615 0.77764,0.273616 1.35367,0.820846 0.57603,0.53283 0.90725,1.353675 0.33122,0.820846 0.33122,1.915306 z"
           style="font-style:normal;font-variant:normal;font-weight:800;font-stretch:normal;font-family:'Recursive Casual';-inkscape-font-specification:'Recursive Casual Ultra-Bold';fill:#333333;fill-opacity:1;stroke-width:0.360022"
           id="path58" />
        <path
           d="m 125.94767,57.656599 q 0,0.288016 0,0.590433 0,0.288016 0,0.576032 0,0.288016 0,0.576032 0,0.288016 0,0.576032 0,0.172809 0,0.345619 0,0.158409 0,0.316817 0.0432,0.0288 0.12961,0.0576 0.0864,0.0144 0.14401,0.0144 0.14401,0 0.30242,-0.0432 0.15841,-0.0576 0.30241,-0.18721 h 0.0864 q 0.0288,0.100805 0.0288,0.172809 0.0144,0.072 0.0144,0.187211 0,0.432024 -0.15841,0.878448 -0.14401,0.432024 -0.38882,0.676838 -0.24481,0.244814 -0.48963,0.345619 -0.23041,0.100806 -0.44642,0.100806 -0.38882,0 -0.73444,-0.216012 -0.33122,-0.230413 -0.57603,-0.576032 -0.24482,-0.345619 -0.38883,-0.748842 -0.1296,-0.403222 -0.1296,-0.748841 0,-0.288016 0,-0.561632 0,-0.273615 0,-0.54723 0,-0.273615 0.0288,-0.604834 0.0432,-0.331218 0.1152,-0.748841 0.0864,-0.417623 0.20162,-0.921651 -0.27362,-0.115207 -0.54723,-0.17281 -0.25922,-0.0576 -0.54724,-0.072 -0.27361,-0.0288 -0.60483,-0.0288 -0.43202,0 -0.79204,0.0288 -0.36002,0.0288 -0.70564,0.100806 -0.34562,0.0576 -0.73444,0.172809 h -0.0864 q -0.0288,-0.144008 -0.0576,-0.331218 -0.0144,-0.187211 -0.0144,-0.374421 0,-0.331218 0.1008,-0.648036 0.10081,-0.316818 0.30242,-0.518429 0.17281,-0.172809 0.44643,-0.273615 0.28801,-0.115206 0.77764,-0.158409 0.48963,-0.0576 1.28167,-0.0576 0.74884,0 1.32487,0.259215 0.59044,0.259214 0.99366,0.691238 0.40322,0.417623 0.60483,0.90725 0.21601,0.489627 0.21601,0.964854 z m -4.49305,2.808156 q 0,0.345619 0.12961,0.460825 0.12961,0.115207 0.56163,0.115207 0.27362,0 0.56163,-0.0864 0.28802,-0.0864 0.57604,-0.273615 0.28801,-0.187211 0.53283,-0.489627 l 0.1296,1.180865 h -0.21601 q -0.17281,0.374421 -0.53283,0.734441 -0.34562,0.345619 -0.82084,0.576032 -0.46083,0.216012 -0.99366,0.216012 -0.70564,0 -1.20967,-0.244814 -0.50402,-0.259214 -0.76324,-0.763242 -0.25921,-0.518429 -0.25921,-1.296072 v -0.115206 q 0,-0.374421 0.20161,-0.763243 0.21601,-0.403222 0.57603,-0.748841 0.36002,-0.34562 0.80644,-0.561632 0.46083,-0.216012 0.95046,-0.216012 0.63363,0 1.16646,0.072 0.53283,0.0576 0.92165,0.187211 0.38883,0.129607 0.56163,0.302417 0.0864,0.0864 0.15841,0.230412 0.0864,0.129608 0.12961,0.331219 0.0576,0.201611 0.0576,0.489627 -0.38882,-0.100806 -0.80644,-0.158409 -0.40322,-0.0576 -0.79204,-0.0864 -0.38883,-0.0432 -0.72004,-0.0432 -0.23042,0 -0.43203,0.0288 -0.20161,0.0288 -0.38882,0.100805 -0.0432,0.216012 -0.072,0.403223 -0.0144,0.18721 -0.0144,0.388821 z"
           style="font-style:normal;font-variant:normal;font-weight:800;font-stretch:normal;font-family:'Recursive Casual';-inkscape-font-specification:'Recursive Casual Ultra-Bold';fill:#333333;fill-opacity:1;stroke-width:0.360022"
           id="path60" />
        <path
           d="m 127.0853,54.97805 h 5.11229 q 0.60483,0 0.82084,0.273615 0.23042,0.259215 0.23042,0.979255 0,0.158408 -0.0144,0.331218 -0.0144,0.158409 -0.0432,0.302417 -0.0144,0.144008 -0.0432,0.273615 h -3.5714 q -0.74884,0 -1.23847,-0.100806 -0.48962,-0.100805 -0.77764,-0.316817 -0.28802,-0.216012 -0.40322,-0.547231 -0.11521,-0.331218 -0.11521,-0.806444 0,-0.072 0,-0.144008 0.0144,-0.072 0.0144,-0.129607 0.0144,-0.072 0.0288,-0.115207 z m 6.07714,5.371498 q 0.0288,0.144008 0.0432,0.288016 0.0144,0.129608 0.0144,0.259215 0,0.532829 -0.1152,0.921651 -0.10081,0.374421 -0.28802,0.619234 -0.1008,0.129608 -0.24481,0.230413 -0.12961,0.08641 -0.34562,0.144008 -0.20161,0.0576 -0.46083,0.0864 -0.25921,0.0288 -0.59043,0.0288 -0.54723,0 -1.03686,-0.17281 -0.47522,-0.18721 -0.83524,-0.518429 -0.36002,-0.345619 -0.56163,-0.806445 -0.20161,-0.460825 -0.20161,-1.022456 0,-0.806445 0,-1.598489 0,-0.806445 0,-1.598489 0,-0.806445 0,-1.61289 0,-0.806444 0,-1.598488 0,-0.331219 -0.0432,-0.662437 -0.0288,-0.331218 -0.14401,-0.662437 0.25922,-0.072 0.50403,-0.100805 0.25922,-0.0432 0.50403,-0.0432 0.37442,0 0.67684,0.158409 0.30241,0.158409 0.47522,0.489627 0.18721,0.316818 0.18721,0.820846 0,0.777643 0,1.555286 0,0.777643 0,1.555286 0,0.777644 0,1.555287 0,0.777643 0,1.555286 0,0.115207 0.0144,0.230413 0.0144,0.115206 0.0432,0.230413 0.15841,0.0432 0.28801,0.072 0.14401,0.0144 0.37442,0.0144 0.27362,0 0.54724,-0.0432 0.28801,-0.0432 0.56163,-0.129607 0.28801,-0.100806 0.54723,-0.244814 z"
           style="font-style:normal;font-variant:normal;font-weight:800;font-stretch:normal;font-family:'Recursive Casual';-inkscape-font-specification:'Recursive Casual Ultra-Bold';fill:#333333;fill-opacity:1;stroke-width:0.360022"
           id="path62" />
        <path
           d="m 138.60592,54.747637 q 1.02245,0 1.74249,0.432024 0.73444,0.417623 1.12327,1.166465 0.40322,0.748842 0.40322,1.728096 v 0.072 q 0,0.590433 -0.072,0.864048 -0.072,0.273615 -0.18721,0.345619 -0.1152,0.072 -0.24481,0.072 h -2.99537 q -0.47522,0 -0.86404,-0.129607 -0.37442,-0.129607 -0.60484,-0.345619 l -0.31682,0.144008 0.0864,-0.921651 h 3.03857 q 0.0288,-0.0864 0.0288,-0.187211 0.0144,-0.115206 0.0144,-0.18721 0,-0.288016 -0.0576,-0.576032 -0.0576,-0.302417 -0.21601,-0.547231 -0.15841,-0.0576 -0.30242,-0.072 -0.12961,-0.0288 -0.40322,-0.0288 -0.87845,0 -1.42568,0.691238 -0.53283,0.691239 -0.53283,2.116918 v 0.0432 q 0,0.403223 0.0432,0.734441 0.0576,0.316818 0.15841,0.576032 0.33122,0.144008 0.74884,0.216012 0.43202,0.0576 1.05126,0.0576 0.46082,0 0.90725,-0.0576 0.44642,-0.0576 0.87845,-0.18721 0.43202,-0.129608 0.82084,-0.331219 h 0.0864 q 0.0288,0.144008 0.0432,0.288016 0.0144,0.129607 0.0144,0.259215 0,0.489627 -0.12961,0.820845 -0.1296,0.316818 -0.37442,0.561631 -0.23041,0.230413 -0.59043,0.374421 -0.36002,0.129607 -0.79204,0.187211 -0.41763,0.0576 -0.87845,0.0576 -0.92165,0 -1.6849,-0.288016 -0.76324,-0.288016 -1.31047,-0.806445 -0.54723,-0.53283 -0.84965,-1.26727 -0.30241,-0.748842 -0.30241,-1.656092 v -0.0432 q 0,-0.892849 0.28801,-1.641691 0.28802,-0.763242 0.80645,-1.324874 0.53283,-0.576032 1.25287,-0.892849 0.73444,-0.316818 1.59849,-0.316818 z"
           style="font-style:normal;font-variant:normal;font-weight:800;font-stretch:normal;font-family:'Recursive Casual';-inkscape-font-specification:'Recursive Casual Ultra-Bold';fill:#333333;fill-opacity:1;stroke-width:0.360022"
           id="path64" />
        <path
           d="m 114.25424,76.109125 q -1.05126,0 -1.87211,-0.331218 -0.80644,-0.345619 -1.35367,-0.936052 -0.54723,-0.604834 -0.83525,-1.396878 -0.27361,-0.806445 -0.27361,-1.756897 v -0.201612 q 0,-1.540885 0.36002,-2.664148 0.36002,-1.137663 0.97925,-1.886504 0.61924,-0.748842 1.42568,-1.108862 0.80644,-0.374421 1.69929,-0.374421 0.43203,0 0.79205,0.100806 0.37442,0.0864 0.69124,0.259214 0.31681,0.17281 0.54723,0.417624 0.37442,0.37442 0.61923,0.849647 0.25922,0.460825 0.38882,1.008056 0.12961,0.54723 0.12961,1.195266 0,0.331218 0,0.662437 0,0.316817 0,0.633635 -0.24481,0.072 -0.56163,0.129607 -0.31682,0.0576 -0.69124,0.0576 -0.83525,0 -1.26727,-0.273615 -0.41762,-0.273615 -0.41762,-0.864048 0,-0.331218 0.0576,-0.705639 0.072,-0.374421 0.18721,-0.763242 0.11521,-0.388822 0.25922,-0.748842 l 0.072,0.849647 q -0.23041,-0.100805 -0.38882,-0.129607 -0.15841,-0.0432 -0.36002,-0.0432 -0.41763,0 -0.76324,0.403222 -0.33122,0.388822 -0.53283,1.180866 -0.20162,0.777643 -0.20162,1.98731 v 0.158409 q 0,0.273615 0.0144,0.518429 0.0144,0.230412 0.0432,0.460825 0.23041,0.331219 0.59043,0.460826 0.36002,0.115206 0.90725,0.115206 0.86405,0 1.62729,-0.302417 0.76324,-0.302416 1.33928,-0.849647 h 0.0576 q 0.0288,0.0864 0.0432,0.201611 0.0288,0.115207 0.0288,0.244814 0.0144,0.129607 0.0144,0.273615 0.0144,0.129607 0.0144,0.273615 0,0.763243 -0.17281,1.281672 -0.1584,0.518428 -0.43202,0.792044 -0.24481,0.244813 -0.63363,0.432024 -0.38883,0.18721 -0.92166,0.288016 -0.53283,0.100805 -1.20966,0.100805 z"
           style="font-style:normal;font-variant:normal;font-weight:900;font-stretch:normal;font-family:'Recursive Casual';-inkscape-font-specification:'Recursive Casual Heavy';fill:#a02c2c;fill-opacity:1;stroke-width:0.360022"
           id="path66" />
        <path
           d="m 122.43387,67.771062 q 0.83525,0 1.52648,0.273615 0.70564,0.259215 1.20967,0.806445 0.51843,0.53283 0.80645,1.339274 0.28801,0.792044 0.28801,1.872104 v 0.201612 q 0,1.152064 -0.47522,1.98731 -0.46083,0.835246 -1.32488,1.296072 -0.86405,0.446425 -2.05931,0.446425 -0.83525,0 -1.54089,-0.230413 -0.70564,-0.244814 -1.22407,-0.705639 -0.50402,-0.475227 -0.79204,-1.166465 -0.27361,-0.705639 -0.27361,-1.641691 V 72.0481 q 0,-1.324874 0.46082,-2.275327 0.46083,-0.964853 1.32487,-1.483282 0.87845,-0.518429 2.07372,-0.518429 z m 0.14401,2.476938 q -0.40322,0 -0.66244,0.18721 -0.25921,0.18721 -0.38882,0.604834 -0.11521,0.403222 -0.11521,1.08006 v 0.158408 q 0,0.36002 0.0288,0.648036 0.0288,0.288016 0.0864,0.504028 0.15841,0.0432 0.31682,0.072 0.17281,0.0144 0.43202,0.0144 0.40322,0 0.64804,-0.129607 0.25921,-0.129607 0.37442,-0.417623 0.1296,-0.302417 0.1296,-0.777643 v -0.158409 q 0,-0.547231 -0.0432,-0.936052 -0.0288,-0.403223 -0.1296,-0.763243 -0.14401,-0.0432 -0.30242,-0.0576 -0.14401,-0.0288 -0.37442,-0.0288 z"
           style="font-style:normal;font-variant:normal;font-weight:900;font-stretch:normal;font-family:'Recursive Casual';-inkscape-font-specification:'Recursive Casual Heavy';fill:#a02c2c;fill-opacity:1;stroke-width:0.360022"
           id="path68" />
        <path
           d="m 134.96254,75.821109 q -0.33121,0.0576 -0.63363,0.0864 -0.28802,0.0432 -0.66244,0.0432 -0.67684,0 -1.13766,-0.18721 -0.44643,-0.201611 -0.67684,-0.619234 -0.21601,-0.417624 -0.21601,-1.08006 0,-0.331219 0.0576,-0.849648 0.072,-0.518428 0.18721,-1.166464 0.12961,-0.648036 0.28802,-1.368076 -0.072,-0.0576 -0.18721,-0.072 -0.11521,-0.0288 -0.24482,-0.0288 -0.23041,0 -0.46082,0.100806 -0.23041,0.0864 -0.46083,0.316817 -0.21601,0.216012 -0.41762,0.590433 -0.18721,0.374421 -0.33122,0.936052 l -0.12961,-2.635346 h 0.37443 q 0.24481,-0.633636 0.64803,-1.108862 0.40322,-0.475226 0.90725,-0.748841 0.51843,-0.273616 1.03686,-0.273616 0.33122,0 0.64804,0.259215 0.33121,0.244813 0.59043,0.662436 0.25921,0.403223 0.40322,0.89285 0.15841,0.489627 0.15841,0.993655 0,0.518429 0,1.051259 0,0.518428 0,1.051258 0,0.518429 0,1.051258 0,0.619235 0.0576,1.123263 0.0576,0.504028 0.20161,0.979254 z m -4.73786,0 q -0.17281,0.0288 -0.34562,0.0432 -0.15841,0.0288 -0.33122,0.0288 -0.17281,0.0144 -0.34562,0.0144 -0.51843,0 -0.86404,-0.0864 -0.34562,-0.072 -0.56164,-0.244813 -0.20161,-0.17281 -0.30241,-0.432024 -0.0864,-0.259215 -0.0864,-0.633636 0,-0.590432 0,-1.166464 0,-0.590433 0,-1.180866 0,-0.590433 0,-1.180866 0,-0.604833 0,-1.209667 0,-0.532829 -0.072,-0.993655 -0.0576,-0.475226 -0.18721,-0.835246 0.20161,-0.0432 0.40322,-0.0576 0.20161,-0.0288 0.40322,-0.0432 0.20161,-0.0144 0.38882,-0.0144 0.63364,0 1.05126,0.201612 0.41763,0.18721 0.63364,0.633635 0.21601,0.432024 0.21601,1.123262 0,1.022457 0,2.044914 0,1.022456 0,2.030512 0,0.993656 0,1.958509 z"
           style="font-style:normal;font-variant:normal;font-weight:900;font-stretch:normal;font-family:'Recursive Casual';-inkscape-font-specification:'Recursive Casual Heavy';fill:#a02c2c;fill-opacity:1;stroke-width:0.360022"
           id="path70" />
        <path
           d="m 135.30813,67.943872 h 5.52991 q 0.60483,0 0.82085,0.36002 0.23041,0.345619 0.23041,1.281671 0,0.172809 -0.0144,0.388821 0,0.201612 -0.0288,0.388822 -0.0144,0.18721 -0.0576,0.316818 h -3.96022 q -0.74884,0 -1.23847,-0.100806 -0.48962,-0.115206 -0.77764,-0.374421 -0.28801,-0.273615 -0.40322,-0.748841 -0.11521,-0.475227 -0.11521,-1.195267 0,-0.0576 0,-0.115206 0,-0.0576 0,-0.100806 0,-0.0576 0.0144,-0.100805 z m 6.46596,4.925073 q 0.0576,0.259215 0.072,0.460826 0.0288,0.201611 0.0288,0.417623 0,0.648036 -0.12961,1.108862 -0.11521,0.460825 -0.31682,0.676837 -0.1008,0.115207 -0.24481,0.201611 -0.14401,0.072 -0.36002,0.129608 -0.21601,0.0576 -0.50403,0.0864 -0.27361,0.0288 -0.67684,0.0288 -0.57603,0 -1.10886,-0.201611 -0.53283,-0.201611 -0.96485,-0.590433 -0.41762,-0.388822 -0.67684,-0.950453 -0.24481,-0.561631 -0.24481,-1.26727 0,-0.705639 0,-1.411279 0,-0.705639 0,-1.411278 0,-0.705639 0,-1.411278 0,-0.72004 0,-1.425679 0,-0.388822 -0.0144,-0.792044 0,-0.403223 -0.0432,-0.792044 0.27362,-0.072 0.57604,-0.08641 0.30241,-0.0288 0.59043,-0.0288 0.72004,0 1.09446,0.115207 0.38882,0.115206 0.53283,0.403222 0.14401,0.273615 0.14401,0.763242 0,0.72004 0,1.44008 0,0.705639 0,1.425679 0,0.70564 0,1.42568 0,0.705639 0,1.425679 0,0.172809 0.0144,0.316817 0.0144,0.144008 0.0432,0.288016 0.072,0.0144 0.14401,0.0288 0.072,0 0.17281,0 0.36002,0 0.64803,-0.0432 0.30242,-0.0432 0.57604,-0.115207 0.28801,-0.0864 0.56163,-0.216012 z"
           style="font-style:normal;font-variant:normal;font-weight:900;font-stretch:normal;font-family:'Recursive Casual';-inkscape-font-specification:'Recursive Casual Heavy';fill:#a02c2c;fill-opacity:1;stroke-width:0.360022"
           id="path72" />
        <path
           d="m 145.34547,70.017587 h 0.53282 q 0.17281,-0.777643 0.41763,-1.281671 0.25921,-0.518429 0.56163,-0.763243 0.30242,-0.259214 0.63363,-0.259214 0.24482,0 0.43203,0.129607 0.18721,0.115207 0.31682,0.345619 0.17281,0.273615 0.24481,0.691239 0.0864,0.403222 0.0864,0.964853 0,0.216012 -0.0144,0.403223 0,0.18721 -0.0288,0.36002 -0.0144,0.172809 -0.0576,0.331218 -0.0288,0.144008 -0.072,0.288016 h -0.0864 q -0.21601,-0.115206 -0.38882,-0.158409 -0.15841,-0.0576 -0.40322,-0.0576 -0.41763,0 -0.73444,0.144008 -0.31682,0.144008 -0.59044,0.460826 -0.25921,0.302416 -0.50403,0.806444 z m 0.44642,5.803522 q -0.17281,0.0288 -0.34562,0.0432 -0.15841,0.0288 -0.33122,0.0288 -0.17281,0.0144 -0.34562,0.0144 -0.54723,0 -0.90725,-0.072 -0.34562,-0.0576 -0.54723,-0.201611 -0.18721,-0.144008 -0.27361,-0.388822 -0.0864,-0.244813 -0.0864,-0.590433 0,-0.489627 0,-0.993655 0,-0.504028 0,-0.993655 0,-0.504028 0,-0.979254 0,-0.475227 0,-0.964854 0,-0.489627 0,-0.950453 0,-0.532829 -0.0576,-0.993655 -0.0432,-0.475226 -0.14401,-0.835246 0.18721,-0.0432 0.37442,-0.0576 0.18721,-0.0288 0.38882,-0.0432 0.21602,-0.0144 0.43203,-0.0144 0.63363,0 1.03686,0.216012 0.41762,0.216012 0.60483,0.748842 0.20161,0.532829 0.20161,1.468881 0,0.561632 0,1.137664 0,0.561631 0,1.123262 0,0.561631 0,1.123262 0,0.561632 0,1.108862 0,0.54723 0,1.065659 z"
           style="font-style:normal;font-variant:normal;font-weight:900;font-stretch:normal;font-family:'Recursive Casual';-inkscape-font-specification:'Recursive Casual Heavy';fill:#a02c2c;fill-opacity:1;stroke-width:0.360022"
           id="path74" />
        <path
           d="m 152.96347,67.771062 q 0.83524,0 1.52648,0.273615 0.70564,0.259215 1.20967,0.806445 0.51843,0.53283 0.80644,1.339274 0.28802,0.792044 0.28802,1.872104 v 0.201612 q 0,1.152064 -0.47523,1.98731 -0.46082,0.835246 -1.32487,1.296072 -0.86405,0.446425 -2.05931,0.446425 -0.83525,0 -1.54089,-0.230413 -0.70564,-0.244814 -1.22407,-0.705639 -0.50403,-0.475227 -0.79204,-1.166465 -0.27362,-0.705639 -0.27362,-1.641691 V 72.0481 q 0,-1.324874 0.46083,-2.275327 0.46082,-0.964853 1.32487,-1.483282 0.87845,-0.518429 2.07372,-0.518429 z m 0.144,2.476938 q -0.40322,0 -0.66243,0.18721 -0.25922,0.18721 -0.38882,0.604834 -0.11521,0.403222 -0.11521,1.08006 v 0.158408 q 0,0.36002 0.0288,0.648036 0.0288,0.288016 0.0864,0.504028 0.15841,0.0432 0.31681,0.072 0.17281,0.0144 0.43203,0.0144 0.40322,0 0.64803,-0.129607 0.25922,-0.129607 0.37442,-0.417623 0.12961,-0.302417 0.12961,-0.777643 v -0.158409 q 0,-0.547231 -0.0432,-0.936052 -0.0288,-0.403223 -0.12961,-0.763243 -0.14401,-0.0432 -0.30241,-0.0576 -0.14401,-0.0288 -0.37443,-0.0288 z"
           style="font-style:normal;font-variant:normal;font-weight:900;font-stretch:normal;font-family:'Recursive Casual';-inkscape-font-specification:'Recursive Casual Heavy';fill:#a02c2c;fill-opacity:1;stroke-width:0.360022"
           id="path76" />
        <path
           d="m 157.81651,66.83501 q 0,-0.532829 -0.0432,-0.993655 -0.0432,-0.460826 -0.14401,-0.820846 0.11521,-0.0288 0.23042,-0.0432 0.1152,-0.0144 0.23041,-0.0288 0.12961,-0.0288 0.24481,-0.0288 0.12961,-0.0144 0.25922,-0.0144 0.1296,-0.0144 0.25921,-0.0144 0.64804,0 1.05126,0.187211 0.40322,0.18721 0.59043,0.561631 0.20161,0.374421 0.20161,0.979254 0,0.547231 0,1.094461 0,0.54723 0,1.08006 0,0.532829 0,1.08006 0,0.54723 0,1.094461 0,0.54723 0,1.08006 0,0.288016 0,0.561631 0.0144,0.259214 0.0288,0.504028 0.0864,0.0432 0.18721,0.0576 0.1152,0.0144 0.20161,0.0144 0.1008,0 0.18721,-0.0144 0.0864,-0.0144 0.15841,-0.0288 0.072,-0.0288 0.144,-0.0576 0.072,-0.0432 0.15841,-0.0864 h 0.0864 q 0.0576,0.259215 0.072,0.446425 0.0144,0.187211 0.0144,0.561631 0,0.504028 -0.1008,0.936052 -0.0864,0.417624 -0.31682,0.648036 -0.11521,0.115207 -0.24481,0.187211 -0.11521,0.072 -0.28802,0.115206 -0.15841,0.0432 -0.37442,0.0576 -0.20161,0.0288 -0.48963,0.0288 -0.43202,0 -0.84965,-0.18721 -0.40322,-0.201612 -0.73444,-0.53283 -0.33121,-0.345619 -0.53283,-0.777643 -0.18721,-0.432024 -0.18721,-0.89285 0,-0.864048 0,-1.713695 0,-0.849647 0,-1.684894 0,-0.849647 0,-1.684893 0,-0.835246 0,-1.670493 z"
           style="font-style:normal;font-variant:normal;font-weight:900;font-stretch:normal;font-family:'Recursive Casual';-inkscape-font-specification:'Recursive Casual Heavy';fill:#a02c2c;fill-opacity:1;stroke-width:0.360022"
           id="path78" />
        <path
           d="m 166.18336,73.430576 q 0.30242,0 0.54723,-0.0144 0.24481,-0.0144 0.44642,-0.0288 0.0576,-0.201611 0.0144,-0.331218 -0.0288,-0.144008 -0.20161,-0.244814 -0.15841,-0.115206 -0.51843,-0.17281 l -1.05125,-0.18721 q -0.87845,-0.158409 -1.39688,-0.417623 -0.51843,-0.273615 -0.74884,-0.72004 -0.21601,-0.446425 -0.21601,-1.094461 0,-0.604834 0.25921,-1.08006 0.25921,-0.475226 0.74884,-0.792044 0.50403,-0.316817 1.22407,-0.475226 0.72004,-0.17281 1.64169,-0.17281 0.61923,0 1.02246,0.0576 0.40322,0.0576 0.64803,0.17281 0.25922,0.100806 0.40323,0.244814 0.20161,0.18721 0.30241,0.432023 0.11521,0.244814 0.15841,0.590433 0.0432,0.331219 0.0432,0.835247 0,0.172809 -0.0288,0.37442 -0.0144,0.201612 -0.0432,0.403223 h -0.0864 q -0.25921,-0.129607 -0.60483,-0.230413 -0.33122,-0.115206 -0.80644,-0.18721 -0.46083,-0.072 -1.09446,-0.072 -0.44643,0 -0.69124,0.0576 -0.23042,0.0432 -0.33122,0.129607 -0.0864,0.072 -0.0864,0.18721 0,0.100806 0.072,0.17281 0.0864,0.072 0.27361,0.129607 0.20161,0.0432 0.57604,0.115207 l 0.99365,0.158408 q 0.79204,0.129608 1.25287,0.432024 0.47523,0.288016 0.69124,0.748842 0.23041,0.460826 0.23041,1.08006 0,0.763242 -0.33122,1.339274 -0.33122,0.576032 -1.10886,0.89285 -0.77764,0.302417 -2.14572,0.302417 -0.73444,0 -1.25287,-0.0576 -0.51843,-0.0432 -0.86405,-0.144008 -0.34561,-0.0864 -0.56163,-0.201612 -0.21601,-0.129607 -0.36002,-0.259214 -0.21601,-0.230413 -0.34562,-0.590433 -0.1152,-0.374421 -0.1152,-0.979254 0,-0.331219 0.0288,-0.576032 0.0288,-0.244814 0.1008,-0.489627 h 0.0864 q 0.37442,0.18721 0.69124,0.316817 0.33122,0.115207 0.67684,0.201611 0.34561,0.072 0.79204,0.115207 0.46083,0.0288 1.06566,0.0288 z"
           style="font-style:normal;font-variant:normal;font-weight:900;font-stretch:normal;font-family:'Recursive Casual';-inkscape-font-specification:'Recursive Casual Heavy';fill:#a02c2c;fill-opacity:1;stroke-width:0.360022"
           id="path80" />
      </g>
      <g
         id="g1576"
         transform="matrix(0.71752864,0,0,0.71752864,61.36221,13.094752)">
        <rect
           style="fill:#e6e6e6;fill-opacity:1;stroke-width:0.435374;paint-order:fill markers stroke;stop-color:#000000"
           id="rect1101"
           width="10.136265"
           height="10.136265"
           x="42.38055"
           y="78.51815" />
        <rect
           style="fill:#cccccc;fill-opacity:1;stroke-width:0.435374;paint-order:fill markers stroke;stop-color:#000000"
           id="rect1101-4"
           width="10.136265"
           height="10.136265"
           x="30.711367"
           y="78.50312" />
        <rect
           style="fill:#b3b3b3;fill-opacity:1;stroke-width:0.435374;paint-order:fill markers stroke;stop-color:#000000"
           id="rect1101-4-7"
           width="10.136265"
           height="10.136265"
           x="17.30559"
           y="76.425972" />
        <rect
           style="fill:#999999;fill-opacity:1;stroke-width:0.435374;paint-order:fill markers stroke;stop-color:#000000"
           id="rect1101-4-7-7"
           width="10.136265"
           height="10.136265"
           x="7.4716983"
           y="77.983353" />
        <rect
           style="fill:#808080;fill-opacity:1;stroke-width:0.435374;paint-order:fill markers stroke;stop-color:#000000"
           id="rect1101-4-7-7-8"
           width="10.136265"
           height="10.136265"
           x="-2.7464104"
           y="80.501411" />
        <rect
           style="fill:#666666;fill-opacity:1;stroke-width:0.435374;paint-order:fill markers stroke;stop-color:#000000"
           id="rect1101-4-7-7-8-9"
           width="10.136265"
           height="10.136265"
           x="-13.486322"
           y="82.352638" />
        <rect
           style="fill:#4d4d4d;fill-opacity:1;stroke-width:0.435374;paint-order:fill markers stroke;stop-color:#000000"
           id="rect1101-4-7-7-8-9-7"
           width="10.136265"
           height="10.136265"
           x="-23.9263"
           y="83.74205" />
        <rect
           style="fill:#e6e6e6;fill-opacity:1;stroke-width:0.435374;paint-order:fill markers stroke;stop-color:#000000"
           id="rect1101-8"
           width="10.136265"
           height="10.136265"
           x="47.529461"
           y="71.241051" />
        <rect
           style="fill:#cccccc;fill-opacity:1;stroke-width:0.435374;paint-order:fill markers stroke;stop-color:#000000"
           id="rect1101-4-0"
           width="10.136265"
           height="10.136265"
           x="37.64476"
           y="73.236008" />
        <rect
           style="fill:#b3b3b3;fill-opacity:1;stroke-width:0.435374;paint-order:fill markers stroke;stop-color:#000000"
           id="rect1101-4-7-5"
           width="10.136265"
           height="10.136265"
           x="22.757071"
           y="70.069565" />
        <rect
           style="fill:#999999;fill-opacity:1;stroke-width:0.435374;paint-order:fill markers stroke;stop-color:#000000"
           id="rect1101-4-7-7-7"
           width="10.136265"
           height="10.136265"
           x="11.370578"
           y="68.570068" />
        <rect
           style="fill:#808080;fill-opacity:1;stroke-width:0.435374;paint-order:fill markers stroke;stop-color:#000000"
           id="rect1101-4-7-7-8-1"
           width="10.136265"
           height="10.136265"
           x="1.6427984"
           y="70.813995" />
        <rect
           style="fill:#666666;fill-opacity:1;stroke-width:0.435374;paint-order:fill markers stroke;stop-color:#000000"
           id="rect1101-4-7-7-8-9-74"
           width="10.136265"
           height="10.136265"
           x="-10.173347"
           y="72.754997" />
        <rect
           style="fill:#4d4d4d;fill-opacity:1;stroke-width:0.435374;paint-order:fill markers stroke;stop-color:#000000"
           id="rect1101-4-7-7-8-9-7-5"
           width="10.136265"
           height="10.136265"
           x="-21.827427"
           y="73.996048" />
        <rect
           style="fill:#e6e6e6;fill-opacity:1;stroke-width:0.435374;paint-order:fill markers stroke;stop-color:#000000"
           id="rect1101-8-9"
           width="10.136265"
           height="10.136265"
           x="49.535736"
           y="61.460278" />
        <rect
           style="fill:#cccccc;fill-opacity:1;stroke-width:0.435374;paint-order:fill markers stroke;stop-color:#000000"
           id="rect1101-4-0-6"
           width="10.136265"
           height="10.136265"
           x="41.958145"
           y="65.736534" />
        <rect
           style="fill:#b3b3b3;fill-opacity:1;stroke-width:0.435374;paint-order:fill markers stroke;stop-color:#000000"
           id="rect1101-4-7-5-1"
           width="10.136265"
           height="10.136265"
           x="27.107204"
           y="63.568745" />
        <rect
           style="fill:#999999;fill-opacity:1;stroke-width:0.435374;paint-order:fill markers stroke;stop-color:#000000"
           id="rect1101-4-7-7-7-2"
           width="10.136265"
           height="10.136265"
           x="14.333925"
           y="60.137211" />
        <rect
           style="fill:#808080;fill-opacity:1;stroke-width:0.435374;paint-order:fill markers stroke;stop-color:#000000"
           id="rect1101-4-7-7-8-1-7"
           width="10.136265"
           height="10.136265"
           x="5.4151444"
           y="61.435036" />
        <rect
           style="fill:#666666;fill-opacity:1;stroke-width:0.435374;paint-order:fill markers stroke;stop-color:#000000"
           id="rect1101-4-7-7-8-9-74-9"
           width="10.136265"
           height="10.136265"
           x="-6.1908221"
           y="63.091732" />
        <rect
           style="fill:#4d4d4d;fill-opacity:1;stroke-width:0.435374;paint-order:fill markers stroke;stop-color:#000000"
           id="rect1101-4-7-7-8-9-7-5-2"
           width="10.136265"
           height="10.136265"
           x="-19.255405"
           y="64.308556" />
        <rect
           style="fill:#e6e6e6;fill-opacity:1;stroke-width:0.435374;paint-order:fill markers stroke;stop-color:#000000"
           id="rect1101-8-9-7"
           width="10.136265"
           height="10.136265"
           x="47.505661"
           y="48.382568" />
        <rect
           style="fill:#cccccc;fill-opacity:1;stroke-width:0.435374;paint-order:fill markers stroke;stop-color:#000000"
           id="rect1101-4-0-6-6"
           width="10.136265"
           height="10.136265"
           x="39.720451"
           y="52.490532" />
        <rect
           style="fill:#b3b3b3;fill-opacity:1;stroke-width:0.435374;paint-order:fill markers stroke;stop-color:#000000"
           id="rect1101-4-7-5-1-3"
           width="10.136265"
           height="10.136265"
           x="26.624668"
           y="51.945129" />
        <rect
           style="fill:#999999;fill-opacity:1;stroke-width:0.435374;paint-order:fill markers stroke;stop-color:#000000"
           id="rect1101-4-7-7-7-2-5"
           width="10.136265"
           height="10.136265"
           x="14.936659"
           y="50.462189" />
        <rect
           style="fill:#808080;fill-opacity:1;stroke-width:0.435374;paint-order:fill markers stroke;stop-color:#000000"
           id="rect1101-4-7-7-8-1-7-7"
           width="10.136265"
           height="10.136265"
           x="6.4490933"
           y="51.75198" />
        <rect
           style="fill:#666666;fill-opacity:1;stroke-width:0.435374;paint-order:fill markers stroke;stop-color:#000000"
           id="rect1101-4-7-7-8-9-74-9-5"
           width="10.136265"
           height="10.136265"
           x="-4.1634641"
           y="53.216984" />
        <rect
           style="fill:#4d4d4d;fill-opacity:1;stroke-width:0.435374;paint-order:fill markers stroke;stop-color:#000000"
           id="rect1101-4-7-7-8-9-7-5-2-5"
           width="10.136265"
           height="10.136265"
           x="-16.942112"
           y="54.569809" />
        <rect
           style="fill:#e9afaf;fill-opacity:1;stroke-width:0.435374;paint-order:fill markers stroke;stop-color:#000000"
           id="rect1527"
           width="10.136265"
           height="10.136265"
           x="46.89286"
           y="36.399929" />
        <rect
           style="fill:#de8787;fill-opacity:1;stroke-width:0.435374;paint-order:fill markers stroke;stop-color:#000000"
           id="rect1529"
           width="10.136265"
           height="10.136265"
           x="36.717392"
           y="38.043648" />
        <rect
           style="fill:#d35f5f;fill-opacity:1;stroke-width:0.435374;paint-order:fill markers stroke;stop-color:#000000"
           id="rect1531"
           width="10.136265"
           height="10.136265"
           x="25.847092"
           y="39.345184" />
        <rect
           style="fill:#c83737;fill-opacity:1;stroke-width:0.435374;paint-order:fill markers stroke;stop-color:#000000"
           id="rect1533"
           width="10.136265"
           height="10.136265"
           x="15.486756"
           y="40.534695" />
        <rect
           style="fill:#a02c2c;fill-opacity:1;stroke-width:0.435374;paint-order:fill markers stroke;stop-color:#000000"
           id="rect1535"
           width="10.136265"
           height="10.136265"
           x="6.0708828"
           y="41.902977" />
        <rect
           style="fill:#501616;fill-opacity:1;stroke-width:0.435374;paint-order:fill markers stroke;stop-color:#000000"
           id="rect1537"
           width="10.136265"
           height="10.136265"
           x="-4.041903"
           y="43.33707" />
        <rect
           style="fill:#501616;fill-opacity:1;stroke-width:0.435374;paint-order:fill markers stroke;stop-color:#000000"
           id="rect1539"
           width="10.136265"
           height="10.136265"
           x="-15.38095"
           y="44.762737" />
      </g>
    </g>
  </g>
</svg>
